<?xml version="1.0" encoding="utf-8"?>
<!-- Generator: Adobe Illustrator 19.2.0, SVG Export Plug-In . SVG Version: 6.00 Build 0)  -->
<svg version="1.1" id="Calque_1" xmlns="http://www.w3.org/2000/svg" xmlns:xlink="http://www.w3.org/1999/xlink" x="0px" y="0px"
	 viewBox="0 0 382.7 84.8" style="enable-background:new 0 0 382.7 84.8;" xml:space="preserve">
<style type="text/css">
	.st0{fill:#FFFFFF;}
</style>
<g>
	<g>
		<path class="st0" d="M115.7,23.5c0,6.4-0.3,8.5,7.2,9.1v1.3h-19.6v-1.3c5.6-0.9,6.2-0.6,6.2-9.1V11c0-7-0.4-6.9-6.2-7.7V2h14.5
			c4.4,0,13.8,0,13.8,8.3c0,7.1-7.2,9.1-12.9,10.2l-0.3-1.4c3.9-1,6.3-3.5,6.3-7.6c0-5.4-3.8-7.7-9-7.7V23.5z"/>
		<path class="st0" d="M141.4,12.2l0.7,0.7l-0.6,5.2l0.1,0.1c1.6-2.3,3.9-5.7,7.2-5.7c1.5,0,3,1.2,3,2.7c0,2-2.1,3.8-3.7,4.6
			c-0.7-1-1.8-2.6-3.2-2.6c-2.7,0-2.9,3.3-2.9,5.3v5.5c0,3.8,0,3.7,5.2,4.8v1.1h-14.3v-1.1c3.6-0.9,3.6-1.1,3.6-4.8v-7.2
			c0-3.3,0-2.5-2.8-4.6v-0.7L141.4,12.2z"/>
		<path class="st0" d="M152.4,23.7c0-6.9,5.8-11.2,12.4-11.2c6.4,0,12.1,4.3,12.1,10.9c0,6.7-5.6,11.1-12.2,11.1
			C158.3,34.5,152.4,30.6,152.4,23.7z M170.8,24c0-3.9-1.6-9.8-6.3-9.8c-4.2,0-5.9,5.4-5.9,9c0,3.8,1.8,9.6,6.5,9.6
			C169.5,32.8,170.8,27.4,170.8,24z"/>
		<path class="st0" d="M202.2,14.3c-2.9,0.5-3.4,2.2-5.6,6.9l-6,13.3l-1.9-0.3L182,18.8c-1.8-4.1-1.4-3.5-4.3-4.5v-1.1h11.9v1.1
			c-2.9,0.7-3.5,0.5-1.7,4.6l4.1,9c0.8-2.6,3.8-9.1,3.8-11.5c0-1.8-1.8-1.8-3.1-2.1v-1.1h9.5V14.3z"/>
		<path class="st0" d="M205.1,20.7c0-3.3,0-2.5-2.8-4.6v-0.7l7.6-3.2l0.9,0.7l-0.2,5.6v9.4c0,3.8,0,3.7,3.6,4.8v1.1h-12.7v-1.1
			c3.6-0.9,3.6-1.1,3.6-4.8V20.7z M207.6,7.9c-1.9,0-3.4-1.5-3.4-3.3s1.5-3.4,3.4-3.4c1.9,0,3.4,1.5,3.4,3.4S209.5,7.9,207.6,7.9z"
			/>
		<path class="st0" d="M238.4,0.9v25.5c0,5.2-0.1,5.2,4.3,5l0.1,1.1l-10.1,2.2l0.1-3.7c-2,2.2-4.4,3.6-7.4,3.6
			c-5.4,0-9.3-4.9-9.3-10.1c0-5.5,4.2-11.9,10.6-11.9c2.3,0,4.4,0.4,6.2,0.7V8.7c0-3.3,0-2.5-2.9-4.6V3.4l7.6-3.2L238.4,0.9z
			 M232.9,21.8c0-3.8-2.2-7.3-5.8-7.3c-3.7,0-5.1,4.3-5.1,7.4c0,4,2.2,9.2,7,9.2c1.8,0,2.8-0.5,4-1.6V21.8z"/>
		<path class="st0" d="M249.5,20.5c-0.1,5.1,2.8,9.9,8.4,9.9c2.2,0,3.6-1,5.1-2.7l1.2,0.8c-2.2,3.1-5.5,5.9-9.6,5.9
			c-5.9,0-10.4-4.7-10.4-10.8c0-5.8,4.9-11.2,10.9-11.2c5.2,0,8.1,3,8.3,8H249.5z M257.5,18.7c-0.2-2-1-4.5-3.5-4.5
			c-2.6,0-3.8,2.6-4.3,4.7L257.5,18.7z"/>
		<path class="st0" d="M273.9,27.9c0,3.8,0,3.7,3.3,4.8v1.1h-12.3v-1.1c3.6-0.9,3.6-1.1,3.6-4.8v-7.2c0-3.3,0-2.5-2.8-4.6v-0.7
			l7.6-3.2l0.9,0.7l-0.5,2.9c2.8-1.9,5.6-3.4,8.5-3.4c1.8,0,3.8,1,4.9,2.5c1.3,1.8,1.2,4.3,1.2,6.4v6.5c0,3.7,0,3.8,3.6,4.8v1.1
			h-12.3v-1.1c3.3-1,3.3-0.9,3.3-4.8v-5.7c0-3.7-0.8-6.5-5.3-6.5c-1.3,0-2.4,0.5-3.5,1.1V27.9z"/>
		<path class="st0" d="M311.7,13.7l-12.8,18.4h3.1c5.8,0,8.1-2.2,9.7-7.6l1.4,0.3l-2.1,9h-19l-0.4-0.6l12.8-18.4h-0.9
			c-5.2,0-8.7-0.2-9.7,5.8h-1.4l0.7-7.5h18.3L311.7,13.7z"/>
		<path class="st0" d="M318.2,20.7c0-3.3,0-2.5-2.8-4.6v-0.7l7.6-3.2l0.9,0.7l-0.2,5.6v9.4c0,3.8,0,3.7,3.6,4.8v1.1h-12.7v-1.1
			c3.6-0.9,3.6-1.1,3.6-4.8V20.7z M320.8,7.9c-1.9,0-3.4-1.5-3.4-3.3s1.5-3.4,3.4-3.4c1.9,0,3.4,1.5,3.4,3.4S322.6,7.9,320.8,7.9z"
			/>
		<path class="st0" d="M340.5,22.2c0-3.6,0-6.8-4.1-6.8c-2.3,0-2.1,1.6-2.1,3.4v0.8l-3.9,0.3c-0.5,0-1.2,0-1.2-0.6
			c0-1.7,6.6-6.8,11-6.8c5.2,0,5.8,5.6,5.8,9.8V28c0,3,0.6,2.9,3.8,4v1c-1.7,0.4-4.2,1.4-5.9,1.4c-2,0-2.8-0.8-3.2-2.6
			c-2,1.4-3.9,2.6-6.5,2.6c-3,0-5-2.3-5-5.2c0-0.8,0.1-1.6,0.4-2.5L340.5,22.2z M335.4,26.2c-0.1,0.7-0.3,1.4-0.3,2.1
			c0,1.9,0.8,3.5,2.9,3.5c1.1,0,1.8-0.4,2.5-0.9v-7.3L335.4,26.2z"/>
		<path class="st0" d="M133.6,51.7h-1.4c-1.1-5.3-4.3-9.3-10.2-9.3c-7.8,0-11.7,7-11.7,14.2c0,6.8,4.4,14.9,12.1,14.9
			c6.4,0,9.5-5,11.7-10.2l1.4,0.5l-2.9,9.8c-3.4,1.4-6.9,2.1-10.5,2.1c-10.1,0-19.3-5.5-19.3-16.2c0-11,9.5-17.2,19.7-17.2
			c3.8,0,7.7,0.7,11.2,2.4V51.7z"/>
		<path class="st0" d="M147.9,61.3c0-3.6,0-6.8-4.1-6.8c-2.3,0-2.1,1.6-2.1,3.4v0.8l-3.9,0.3c-0.5,0-1.2,0-1.2-0.6
			c0-1.7,6.6-6.8,11-6.8c5.2,0,5.8,5.6,5.8,9.8v5.7c0,3,0.6,2.9,3.8,4v1c-1.7,0.4-4.2,1.4-5.9,1.4c-2,0-2.8-0.8-3.2-2.6
			c-2,1.4-3.9,2.6-6.5,2.6c-3,0-5-2.3-5-5.2c0-0.8,0.1-1.6,0.4-2.5L147.9,61.3z M142.8,65.3c-0.1,0.7-0.3,1.4-0.3,2.1
			c0,1.9,0.8,3.5,2.9,3.5c1.1,0,1.8-0.4,2.5-0.9v-7.3L142.8,65.3z"/>
		<path class="st0" d="M167.1,78.5c0,3.8,0,3.7,5.7,4.8v1.1H158v-1.1c3.6-0.9,3.6-1.1,3.6-4.8V59.8c0-3.3,0-2.5-2.8-4.6v-0.7
			l7.6-3.2l0.9,0.7l-0.5,2.6c2.2-1.4,4.5-3,7.2-3c5.6,0,9.1,4.8,9.1,9.9c0,7.7-7,11.9-14.1,11.9l-1.9-0.1V78.5z M167.1,64.4
			c0,3.6,0.9,7,4.9,7c3.9,0,5.3-4.7,5.3-7.8c0-4.3-2.1-8.8-7-8.8c-1.2,0-2.2,0.4-3.2,0.9V64.4z"/>
		<path class="st0" d="M188.2,59.8c0-3.3,0-2.5-2.8-4.6v-0.7l7.6-3.2l0.9,0.7l-0.2,5.6V67c0,3.8,0,3.7,3.6,4.8v1.1h-12.7v-1.1
			c3.6-0.9,3.6-1.1,3.6-4.8V59.8z M190.8,47c-1.9,0-3.4-1.5-3.4-3.3s1.5-3.4,3.4-3.4s3.4,1.5,3.4,3.4S192.7,47,190.8,47z"/>
		<path class="st0" d="M215.6,71.8c-1.4,0.5-2.8,0.9-4.3,1.2c-1.5,0.3-2.9,0.5-4.4,0.5c-4.6,0-4.6-3.4-4.6-7V55.2h-3.6V54l8.2-7.1
			h0.9v5.7h7.8v2.6h-7.8v8.2c0,5.3-0.1,7.2,5.9,7.2h1.8V71.8z"/>
		<path class="st0" d="M228.3,61.3c0-3.6,0-6.8-4.1-6.8c-2.3,0-2.1,1.6-2.1,3.4v0.8l-3.9,0.3c-0.5,0-1.2,0-1.2-0.6
			c0-1.7,6.6-6.8,11-6.8c5.2,0,5.8,5.6,5.8,9.8v5.7c0,3,0.6,2.9,3.8,4v1c-1.7,0.4-4.2,1.4-5.9,1.4c-2,0-2.8-0.8-3.2-2.6
			c-2,1.4-3.9,2.6-6.5,2.6c-3,0-5-2.3-5-5.2c0-0.8,0.1-1.6,0.4-2.5L228.3,61.3z M223.2,65.3c-0.1,0.7-0.3,1.4-0.3,2.1
			c0,1.9,0.8,3.5,2.9,3.5c1.1,0,1.8-0.4,2.5-0.9v-7.3L223.2,65.3z"/>
		<path class="st0" d="M247.1,40l-0.2,5.6V67c0,3.8,0,3.7,3.6,4.8v1.1h-12.6v-1.1c3.6-0.9,3.6-1.1,3.6-4.8V47.8c0-3.3,0-2.5-2.8-4.6
			v-0.7l7.6-3.2L247.1,40z"/>
		<path class="st0" d="M284.2,55.7l-5.8-0.3c0.7,1,0.9,1.9,0.9,3.1c0,5-4.8,7.8-9.4,7.8c-1.1,0-2.2-0.2-3.3-0.4c-0.4,0.6-1,1.3-1,2
			c0,4.8,17.9-2.7,17.9,6.9c0,6.8-10.5,10.1-16.1,10.1c-3,0-8.1-1.1-8.1-5c0-2.9,4-4.7,6.4-5.7V74c-2-0.3-5.1-1.4-5.1-3.9
			c0-1.6,3.4-3.3,5-4.6c-2.8-1-5-3.2-5-6.3c0-5.2,5-7.6,9.7-7.6c2.2,0,4.4,0.5,6.4,1.5h7.6V55.7z M267.6,74
			c-1.4,0.7-2.9,2.2-2.9,3.8c0,3.1,4.3,4.3,6.8,4.3c2.9,0,7.5-1.1,7.5-4.7c0-3.1-2.6-3.6-5.2-3.6L267.6,74z M266.1,58.4
			c0,2.4,1.1,6.4,4.2,6.4c2.7,0,3.5-3.1,3.5-5.3c0-2.4-1.1-6.4-4.2-6.4C266.9,53.1,266.1,56.4,266.1,58.4z"/>
		<path class="st0" d="M291.9,51.3l0.7,0.7l-0.6,5.2l0.1,0.1c1.6-2.3,3.9-5.7,7.2-5.7c1.5,0,3,1.2,3,2.7c0,2-2.1,3.8-3.7,4.6
			c-0.7-1-1.8-2.6-3.2-2.6c-2.7,0-2.9,3.3-2.9,5.3V67c0,3.8,0,3.7,5.2,4.8v1.1h-14.3v-1.1c3.6-0.9,3.6-1.1,3.6-4.8v-7.2
			c0-3.3,0-2.5-2.8-4.6v-0.7L291.9,51.3z"/>
		<path class="st0" d="M304.4,62.8c0-6.9,5.8-11.2,12.4-11.2c6.4,0,12.1,4.3,12.1,10.9c0,6.7-5.6,11.1-12.2,11.1
			C310.2,73.6,304.4,69.6,304.4,62.8z M322.7,63.1c0-3.9-1.6-9.8-6.3-9.8c-4.2,0-5.9,5.4-5.9,9c0,3.8,1.8,9.6,6.5,9.6
			C321.5,71.9,322.7,66.5,322.7,63.1z"/>
		<path class="st0" d="M347.6,59c0-4.1,0-4.4-4.3-5.1v-1.1l9.9-0.8v14.5c0,1.6-0.3,4,1.9,3.9l2.2-0.1v1.2l-9.8,2.3l0.1-3.2
			c-2.4,1.4-5.1,3.1-8,3.1c-2.1,0-4-0.8-5.1-2.6c-1.2-1.8-1-4.1-1-6.2V59c0-3.5,0.4-4.5-3.6-5.1v-1.1L339,52v11.8
			c0,3.5,0.7,6.6,4.5,6.6c1.5,0,2.8-0.5,4.1-1.1V59z"/>
		<path class="st0" d="M366.7,78.5c0,3.8,0,3.7,5.7,4.8v1.1h-14.7v-1.1c3.6-0.9,3.6-1.1,3.6-4.8V59.8c0-3.3,0-2.5-2.8-4.6v-0.7
			l7.6-3.2l0.9,0.7l-0.5,2.6c2.2-1.4,4.5-3,7.2-3c5.6,0,9.1,4.8,9.1,9.9c0,7.7-7,11.9-14.1,11.9l-1.9-0.1V78.5z M366.7,64.4
			c0,3.6,0.9,7,4.9,7c3.9,0,5.3-4.7,5.3-7.8c0-4.3-2.1-8.8-7-8.8c-1.2,0-2.2,0.4-3.2,0.9V64.4z"/>
	</g>
	<path class="st0" d="M36.1,1.6c0,0.6,0,0.9,0,1.3c0,9,0,17.9,0.1,26.9c0,1.2,0,2.5,0.1,3.7c0.2,2.7,1.1,3.9,3.8,4.7
		c1.4,0.4,2.8,0.6,4.3,0.9c0,0.2,0.1,0.4,0.1,0.8c-0.3,0-0.6,0-0.9,0c-6.7,0-13.4-0.1-20.1,0c-5.6,0.2-10.7,2-14.5,6.4
		c-2.7,3.2-3.7,7-3.2,11.2c0.8,6.3,4.8,10.4,10.2,12.9c7.8,3.6,15.5,2.9,22.7-2c3.5-2.4,5.8-5.9,6.6-10.2c0.3-1.9,0.3-3.9-0.6-5.7
		c-1.2-2.5-3.1-4-6-4.1c-3-0.1-5,1.5-6.3,4.1c-1.3,2.8-1.2,5.7-0.3,8.5c0.1,0.2,0.1,0.4,0.3,0.8c-0.4-0.1-0.9,0-1-0.2
		c-2.7-3.9-3.3-10-1-14.1c3.9-6.9,12.9-6,16.7-0.9c0.2,0.2,0.4,0.5,0.5,0.6c0.9-1.2,1.6-2.5,2.6-3.6c2.2-2.5,5.2-3.6,8.4-4.4
		c4-1,8-1.3,12.1-1.2c2.4,0.1,4.7,0,7.2,0c0,0.4,0,0.6,0,0.8c-1,0.2-1.9,0.2-2.8,0.5c-2.8,0.9-4.3,2.9-4.2,6.1
		c0.1,2.8-0.5,5.4-2.5,7.5c-1.2,1.2-2.7,2.2-4,3.3c-0.2,0.2-0.4,0.3-0.8,0.5c2.3,0.2,4.4,0.7,6.3,1.9c5.1,3.1,6.1,9.9,2.1,14.3
		c-3.3,3.7-7.5,5.3-12.5,4.9c-5.4-0.5-9.7-3-12.8-7.4c-0.4-0.5-0.4-0.5,0.2-0.9c2,2.2,4.5,3.6,7.5,4.1c3.6,0.6,7.2,0.6,10.3-1.8
		c2.5-1.9,3.7-4.6,2.9-7.7c-0.8-3-2.9-4.9-5.9-5.4c-2.5-0.5-4.9,0-7.3,1c-2.8,1.3-5.2,3.1-7.6,4.9c-3.1,2.3-6.1,4.6-9.3,6.6
		C32,74.6,26.4,76.6,20.1,76c-8.2-0.8-14.9-4.3-18.4-12.1c-4.2-9.2-0.5-19.5,9.9-23.5c3.7-1.4,7.5-1.9,11.5-1.8
		c1.1,0,2.2-0.1,3.2-0.3c2.7-0.7,3.8-2.1,4.1-4.9c0.1-1.1,0.1-2.1,0.1-3.2c0-7.4,0-14.7,0-22.1c0-1.1-0.2-2.3-0.5-3.3
		c-0.6-2-2.8-3.3-5.4-3.4c-0.4,0-0.8,0-1.3,0c0-0.3,0-0.7-0.1-1c0.2,0,0.4-0.1,0.6-0.1C28,0.3,32.2,0.2,36.4,0
		c4.6-0.1,9.1,0.2,13.3,1.8c3.3,1.3,5.8,3.6,6.6,7.2c0.9,4-0.6,7.1-3.7,9.6c-2.3,1.9-5.1,2.7-8,3.4c-1.1,0.3-2.3,0.4-3.5,0.5
		c-0.7,0.1-0.7,0-0.8-0.7c1.2-0.3,2.3-0.6,3.5-1c6.9-2.4,8.1-10.2,3.7-15.1c-2.2-2.5-5.2-3.6-8.4-4C38.2,1.7,37.2,1.7,36.1,1.6z
		 M50.3,56.4c0.7-0.4,1.4-0.9,2.1-1.2c2.6-1.1,5.1-2.2,7.7-3.2c3.4-1.3,5.5-3.7,6.6-7.1c0.4-1.2,1-2.4,1.6-3.5
		c0.2-0.3,0.4-0.6,0.7-0.9C57.4,40.3,49.8,48.2,50.3,56.4z"/>
</g>
</svg>
