<svg id="Calque_1" data-name="Calque 1" xmlns="http://www.w3.org/2000/svg" viewBox="0 0 17.16 19.91"><defs><style>.cls-1{fill:#fff;}</style></defs><title>newsletter</title><path class="cls-1" d="M17,8.33l-1.6-1.27V0.67A0.67,0.67,0,0,0,14.77,0H2.39a0.67,0.67,0,0,0-.67.67v6.4L0.12,8.33A0.32,0.32,0,0,0,0,8.58V18.9a1,1,0,0,0,1,1H16.15a1,1,0,0,0,1-1V8.58A0.32,0.32,0,0,0,17,8.33ZM16.52,18.9v0L10.4,14.09l6.11-4.84V18.9Zm-15.87,0V9.25l6.11,4.84L0.65,18.92v0Zm9.23-5.22a2.08,2.08,0,0,1-2.59,0L6,12.69h5.1Zm-2.59.81,0,0a2.71,2.71,0,0,0,2.53,0l0,0,6,4.78H1.25Zm9-5.91-0.88.7V7.89ZM2.39,0.65H14.77a0,0,0,0,1,0,0V9.79L11.95,12H5.22L2.37,9.79V7.23h0V0.67A0,0,0,0,1,2.39.65ZM1.72,9.28l-0.88-.7,0.88-.7V9.28Z"/></svg>