<svg id="Calque_1" data-name="Calque 1" xmlns="http://www.w3.org/2000/svg" viewBox="0 0 12.92 18.34"><defs><style>.cls-1{fill:#fff;}</style></defs><title>rapport</title><path class="cls-1" d="M4.09,0.68h1.2A0.32,0.32,0,0,0,5.57.52a1,1,0,0,1,1.79,0,0.32,0.32,0,0,0,.27.16h1.2A0.36,0.36,0,0,1,9.19,1v1a0.36,0.36,0,0,1-.36.36H4.09a0.36,0.36,0,0,1-.36-0.36V1A0.36,0.36,0,0,1,4.09.68Zm8.83,17a0.7,0.7,0,0,1-.7.7H0.7a0.7,0.7,0,0,1-.7-0.7V2.05a0.7,0.7,0,0,1,.7-0.7H3.09V2.08H1a0.32,0.32,0,0,0-.32.32V17.31a0.32,0.32,0,0,0,.32.32H11.88a0.32,0.32,0,0,0,.32-0.32V2.39a0.32,0.32,0,0,0-.32-0.32H9.83V1.36h2.39a0.7,0.7,0,0,1,.7.7V17.65Z"/><path class="cls-1" d="M6.46,1.36a0.32,0.32,0,1,0-.22-0.09A0.32,0.32,0,0,0,6.46,1.36Z"/></svg>